<mxfile host="app.diagrams.net" agent="Mozilla/5.0 (Windows NT 10.0; Win64; x64) AppleWebKit/537.36 (KHTML, like Gecko) Chrome/123.0.0.0 Safari/537.36" version="27.0.2">
  <diagram name="PÃ¡gina-1" id="O-sHqux_YMcQd7GKFfrd">
    <mxGraphModel dx="1652" dy="946" grid="1" gridSize="10" guides="1" tooltips="1" connect="1" arrows="1" fold="1" page="1" pageScale="1" pageWidth="827" pageHeight="1169" math="0" shadow="0">
      <root>
        <mxCell id="0" />
        <mxCell id="1" parent="0" />
        <mxCell id="E2emIpxxr5MAVBgKW4-d-1" value="Persona" style="whiteSpace=wrap;html=1;align=center;" parent="1" vertex="1">
          <mxGeometry x="194" y="285" width="100" height="40" as="geometry" />
        </mxCell>
        <mxCell id="E2emIpxxr5MAVBgKW4-d-2" value="&lt;u&gt;DNI&lt;/u&gt;" style="ellipse;whiteSpace=wrap;html=1;align=center;" parent="1" vertex="1">
          <mxGeometry x="140" y="210" width="100" height="40" as="geometry" />
        </mxCell>
        <mxCell id="E2emIpxxr5MAVBgKW4-d-3" value="" style="endArrow=none;html=1;rounded=0;" parent="1" source="E2emIpxxr5MAVBgKW4-d-2" target="E2emIpxxr5MAVBgKW4-d-1" edge="1">
          <mxGeometry relative="1" as="geometry">
            <mxPoint x="110" y="350" as="sourcePoint" />
            <mxPoint x="270" y="350" as="targetPoint" />
          </mxGeometry>
        </mxCell>
        <mxCell id="E2emIpxxr5MAVBgKW4-d-6" style="edgeStyle=none;shape=connector;rounded=0;orthogonalLoop=1;jettySize=auto;html=1;strokeColor=default;align=center;verticalAlign=middle;fontFamily=Helvetica;fontSize=11;fontColor=default;labelBackgroundColor=default;endArrow=none;" parent="1" source="E2emIpxxr5MAVBgKW4-d-7" target="E2emIpxxr5MAVBgKW4-d-1" edge="1">
          <mxGeometry relative="1" as="geometry">
            <mxPoint x="276.0008934463349" y="247.54556529553645" as="sourcePoint" />
          </mxGeometry>
        </mxCell>
        <mxCell id="E2emIpxxr5MAVBgKW4-d-7" value="Nombre Completo" style="ellipse;shape=doubleEllipse;margin=3;whiteSpace=wrap;html=1;align=center;fontFamily=Helvetica;fontSize=11;fontColor=default;labelBackgroundColor=default;" parent="1" vertex="1">
          <mxGeometry x="250" y="210" width="120" height="40" as="geometry" />
        </mxCell>
        <mxCell id="E2emIpxxr5MAVBgKW4-d-11" style="edgeStyle=none;shape=connector;rounded=0;orthogonalLoop=1;jettySize=auto;html=1;strokeColor=default;align=center;verticalAlign=middle;fontFamily=Helvetica;fontSize=11;fontColor=default;labelBackgroundColor=default;endArrow=none;" parent="1" source="E2emIpxxr5MAVBgKW4-d-8" target="E2emIpxxr5MAVBgKW4-d-7" edge="1">
          <mxGeometry relative="1" as="geometry" />
        </mxCell>
        <mxCell id="E2emIpxxr5MAVBgKW4-d-8" value="Nombre" style="ellipse;whiteSpace=wrap;html=1;align=center;fontFamily=Helvetica;fontSize=11;fontColor=default;labelBackgroundColor=default;" parent="1" vertex="1">
          <mxGeometry x="260" y="160" width="100" height="40" as="geometry" />
        </mxCell>
        <mxCell id="E2emIpxxr5MAVBgKW4-d-10" style="edgeStyle=none;shape=connector;rounded=0;orthogonalLoop=1;jettySize=auto;html=1;strokeColor=default;align=center;verticalAlign=middle;fontFamily=Helvetica;fontSize=11;fontColor=default;labelBackgroundColor=default;endArrow=none;" parent="1" source="E2emIpxxr5MAVBgKW4-d-9" target="E2emIpxxr5MAVBgKW4-d-7" edge="1">
          <mxGeometry relative="1" as="geometry" />
        </mxCell>
        <mxCell id="E2emIpxxr5MAVBgKW4-d-9" value="Apellido" style="ellipse;whiteSpace=wrap;html=1;align=center;fontFamily=Helvetica;fontSize=11;fontColor=default;labelBackgroundColor=default;" parent="1" vertex="1">
          <mxGeometry x="140" y="160" width="100" height="40" as="geometry" />
        </mxCell>
        <mxCell id="E2emIpxxr5MAVBgKW4-d-12" value="Es" style="shape=rhombus;double=1;perimeter=rhombusPerimeter;whiteSpace=wrap;html=1;align=center;fontFamily=Helvetica;fontSize=11;fontColor=default;labelBackgroundColor=default;" parent="1" vertex="1">
          <mxGeometry x="184" y="390" width="120" height="60" as="geometry" />
        </mxCell>
        <mxCell id="E2emIpxxr5MAVBgKW4-d-13" value="Es" style="shape=rhombus;double=1;perimeter=rhombusPerimeter;whiteSpace=wrap;html=1;align=center;fontFamily=Helvetica;fontSize=11;fontColor=default;labelBackgroundColor=default;" parent="1" vertex="1">
          <mxGeometry x="400" y="275" width="120" height="60" as="geometry" />
        </mxCell>
        <mxCell id="E2emIpxxr5MAVBgKW4-d-16" value="&lt;div&gt;Es&lt;/div&gt;" style="shape=rhombus;double=1;perimeter=rhombusPerimeter;whiteSpace=wrap;html=1;align=center;fontFamily=Helvetica;fontSize=11;fontColor=default;labelBackgroundColor=default;" parent="1" vertex="1">
          <mxGeometry y="390" width="120" height="60" as="geometry" />
        </mxCell>
        <mxCell id="T2F4RTrKxuqQYu7UsIe5-19" style="edgeStyle=none;shape=connector;rounded=0;orthogonalLoop=1;jettySize=auto;html=1;strokeColor=default;align=center;verticalAlign=middle;fontFamily=Helvetica;fontSize=11;fontColor=default;labelBackgroundColor=default;endArrow=none;" edge="1" parent="1" source="E2emIpxxr5MAVBgKW4-d-18" target="T2F4RTrKxuqQYu7UsIe5-15">
          <mxGeometry relative="1" as="geometry" />
        </mxCell>
        <mxCell id="T2F4RTrKxuqQYu7UsIe5-31" value="N" style="edgeLabel;html=1;align=center;verticalAlign=middle;resizable=0;points=[];fontFamily=Helvetica;fontSize=11;fontColor=default;labelBackgroundColor=default;" vertex="1" connectable="0" parent="T2F4RTrKxuqQYu7UsIe5-19">
          <mxGeometry x="0.5193" y="-2" relative="1" as="geometry">
            <mxPoint as="offset" />
          </mxGeometry>
        </mxCell>
        <mxCell id="E2emIpxxr5MAVBgKW4-d-18" value="Profesor" style="shape=ext;margin=3;double=1;whiteSpace=wrap;html=1;align=center;fontFamily=Helvetica;fontSize=11;fontColor=default;labelBackgroundColor=default;" parent="1" vertex="1">
          <mxGeometry x="410" y="380" width="100" height="40" as="geometry" />
        </mxCell>
        <mxCell id="E2emIpxxr5MAVBgKW4-d-54" style="edgeStyle=none;shape=connector;rounded=0;orthogonalLoop=1;jettySize=auto;html=1;strokeColor=default;align=center;verticalAlign=middle;fontFamily=Helvetica;fontSize=11;fontColor=default;labelBackgroundColor=default;endArrow=none;" parent="1" source="E2emIpxxr5MAVBgKW4-d-22" target="E2emIpxxr5MAVBgKW4-d-1" edge="1">
          <mxGeometry relative="1" as="geometry" />
        </mxCell>
        <mxCell id="E2emIpxxr5MAVBgKW4-d-22" value="Confianza" style="ellipse;whiteSpace=wrap;html=1;align=center;fontFamily=Helvetica;fontSize=11;fontColor=default;labelBackgroundColor=default;" parent="1" vertex="1">
          <mxGeometry x="10" y="285" width="100" height="40" as="geometry" />
        </mxCell>
        <mxCell id="E2emIpxxr5MAVBgKW4-d-26" value="Alumno" style="shape=ext;margin=3;double=1;whiteSpace=wrap;html=1;align=center;fontFamily=Helvetica;fontSize=11;fontColor=default;labelBackgroundColor=default;" parent="1" vertex="1">
          <mxGeometry x="194" y="480" width="100" height="40" as="geometry" />
        </mxCell>
        <mxCell id="E2emIpxxr5MAVBgKW4-d-27" value="Es alumno de" style="shape=rhombus;perimeter=rhombusPerimeter;whiteSpace=wrap;html=1;align=center;fontFamily=Helvetica;fontSize=11;fontColor=default;labelBackgroundColor=default;" parent="1" vertex="1">
          <mxGeometry x="330" y="470" width="120" height="60" as="geometry" />
        </mxCell>
        <mxCell id="E2emIpxxr5MAVBgKW4-d-32" value="" style="endArrow=none;html=1;rounded=0;strokeColor=default;align=center;verticalAlign=middle;fontFamily=Helvetica;fontSize=11;fontColor=default;labelBackgroundColor=default;" parent="1" source="E2emIpxxr5MAVBgKW4-d-12" target="E2emIpxxr5MAVBgKW4-d-1" edge="1">
          <mxGeometry relative="1" as="geometry">
            <mxPoint x="20" y="450" as="sourcePoint" />
            <mxPoint x="180" y="450" as="targetPoint" />
          </mxGeometry>
        </mxCell>
        <mxCell id="E2emIpxxr5MAVBgKW4-d-33" value="1" style="resizable=0;html=1;whiteSpace=wrap;align=right;verticalAlign=bottom;fontFamily=Helvetica;fontSize=11;fontColor=default;labelBackgroundColor=default;" parent="E2emIpxxr5MAVBgKW4-d-32" connectable="0" vertex="1">
          <mxGeometry x="1" relative="1" as="geometry">
            <mxPoint x="-124" y="55" as="offset" />
          </mxGeometry>
        </mxCell>
        <mxCell id="E2emIpxxr5MAVBgKW4-d-34" value="" style="endArrow=none;html=1;rounded=0;strokeColor=default;align=center;verticalAlign=middle;fontFamily=Helvetica;fontSize=11;fontColor=default;labelBackgroundColor=default;" parent="1" source="E2emIpxxr5MAVBgKW4-d-12" target="E2emIpxxr5MAVBgKW4-d-26" edge="1">
          <mxGeometry relative="1" as="geometry">
            <mxPoint x="10" y="290" as="sourcePoint" />
            <mxPoint x="170" y="290" as="targetPoint" />
          </mxGeometry>
        </mxCell>
        <mxCell id="E2emIpxxr5MAVBgKW4-d-35" value="1" style="resizable=0;html=1;whiteSpace=wrap;align=right;verticalAlign=bottom;fontFamily=Helvetica;fontSize=11;fontColor=default;labelBackgroundColor=default;" parent="E2emIpxxr5MAVBgKW4-d-34" connectable="0" vertex="1">
          <mxGeometry x="1" relative="1" as="geometry">
            <mxPoint as="offset" />
          </mxGeometry>
        </mxCell>
        <mxCell id="E2emIpxxr5MAVBgKW4-d-36" value="" style="endArrow=none;html=1;rounded=0;strokeColor=default;align=center;verticalAlign=middle;fontFamily=Helvetica;fontSize=11;fontColor=default;labelBackgroundColor=default;" parent="1" source="E2emIpxxr5MAVBgKW4-d-27" target="E2emIpxxr5MAVBgKW4-d-26" edge="1">
          <mxGeometry relative="1" as="geometry">
            <mxPoint x="70" y="285" as="sourcePoint" />
            <mxPoint x="70" y="150" as="targetPoint" />
          </mxGeometry>
        </mxCell>
        <mxCell id="E2emIpxxr5MAVBgKW4-d-37" value="N" style="resizable=0;html=1;whiteSpace=wrap;align=right;verticalAlign=bottom;fontFamily=Helvetica;fontSize=11;fontColor=default;labelBackgroundColor=default;" parent="E2emIpxxr5MAVBgKW4-d-36" connectable="0" vertex="1">
          <mxGeometry x="1" relative="1" as="geometry">
            <mxPoint x="16" as="offset" />
          </mxGeometry>
        </mxCell>
        <mxCell id="E2emIpxxr5MAVBgKW4-d-38" value="" style="endArrow=none;html=1;rounded=0;strokeColor=default;align=center;verticalAlign=middle;fontFamily=Helvetica;fontSize=11;fontColor=default;labelBackgroundColor=default;" parent="1" source="E2emIpxxr5MAVBgKW4-d-27" target="E2emIpxxr5MAVBgKW4-d-18" edge="1">
          <mxGeometry relative="1" as="geometry">
            <mxPoint x="390" y="60" as="sourcePoint" />
            <mxPoint x="306" y="60" as="targetPoint" />
          </mxGeometry>
        </mxCell>
        <mxCell id="E2emIpxxr5MAVBgKW4-d-39" value="N" style="resizable=0;html=1;whiteSpace=wrap;align=right;verticalAlign=bottom;fontFamily=Helvetica;fontSize=11;fontColor=default;labelBackgroundColor=default;" parent="E2emIpxxr5MAVBgKW4-d-38" connectable="0" vertex="1">
          <mxGeometry x="1" relative="1" as="geometry">
            <mxPoint x="-26" y="40" as="offset" />
          </mxGeometry>
        </mxCell>
        <mxCell id="E2emIpxxr5MAVBgKW4-d-40" value="" style="endArrow=none;html=1;rounded=0;strokeColor=default;align=center;verticalAlign=middle;fontFamily=Helvetica;fontSize=11;fontColor=default;labelBackgroundColor=default;" parent="1" source="E2emIpxxr5MAVBgKW4-d-13" target="E2emIpxxr5MAVBgKW4-d-18" edge="1">
          <mxGeometry relative="1" as="geometry">
            <mxPoint x="370" y="265" as="sourcePoint" />
            <mxPoint x="370" y="130" as="targetPoint" />
          </mxGeometry>
        </mxCell>
        <mxCell id="E2emIpxxr5MAVBgKW4-d-41" value="1" style="resizable=0;html=1;whiteSpace=wrap;align=right;verticalAlign=bottom;fontFamily=Helvetica;fontSize=11;fontColor=default;labelBackgroundColor=default;" parent="E2emIpxxr5MAVBgKW4-d-40" connectable="0" vertex="1">
          <mxGeometry x="1" relative="1" as="geometry">
            <mxPoint as="offset" />
          </mxGeometry>
        </mxCell>
        <mxCell id="E2emIpxxr5MAVBgKW4-d-42" value="" style="endArrow=none;html=1;rounded=0;strokeColor=default;align=center;verticalAlign=middle;fontFamily=Helvetica;fontSize=11;fontColor=default;labelBackgroundColor=default;" parent="1" source="E2emIpxxr5MAVBgKW4-d-13" target="E2emIpxxr5MAVBgKW4-d-1" edge="1">
          <mxGeometry relative="1" as="geometry">
            <mxPoint x="450" y="235" as="sourcePoint" />
            <mxPoint x="450" y="150" as="targetPoint" />
          </mxGeometry>
        </mxCell>
        <mxCell id="E2emIpxxr5MAVBgKW4-d-43" value="1" style="resizable=0;html=1;whiteSpace=wrap;align=right;verticalAlign=bottom;fontFamily=Helvetica;fontSize=11;fontColor=default;labelBackgroundColor=default;" parent="E2emIpxxr5MAVBgKW4-d-42" connectable="0" vertex="1">
          <mxGeometry x="1" relative="1" as="geometry">
            <mxPoint x="16" as="offset" />
          </mxGeometry>
        </mxCell>
        <mxCell id="E2emIpxxr5MAVBgKW4-d-44" value="" style="endArrow=none;html=1;rounded=0;strokeColor=default;align=center;verticalAlign=middle;fontFamily=Helvetica;fontSize=11;fontColor=default;labelBackgroundColor=default;" parent="1" source="E2emIpxxr5MAVBgKW4-d-16" target="E2emIpxxr5MAVBgKW4-d-1" edge="1">
          <mxGeometry relative="1" as="geometry">
            <mxPoint x="410" y="275" as="sourcePoint" />
            <mxPoint x="304" y="302" as="targetPoint" />
          </mxGeometry>
        </mxCell>
        <mxCell id="E2emIpxxr5MAVBgKW4-d-45" value="1" style="resizable=0;html=1;whiteSpace=wrap;align=right;verticalAlign=bottom;fontFamily=Helvetica;fontSize=11;fontColor=default;labelBackgroundColor=default;" parent="E2emIpxxr5MAVBgKW4-d-44" connectable="0" vertex="1">
          <mxGeometry x="1" relative="1" as="geometry">
            <mxPoint x="32" y="65" as="offset" />
          </mxGeometry>
        </mxCell>
        <mxCell id="E2emIpxxr5MAVBgKW4-d-47" value="" style="endArrow=none;html=1;rounded=0;strokeColor=default;align=center;verticalAlign=middle;fontFamily=Helvetica;fontSize=11;fontColor=default;labelBackgroundColor=default;" parent="1" source="E2emIpxxr5MAVBgKW4-d-16" target="E2emIpxxr5MAVBgKW4-d-52" edge="1">
          <mxGeometry relative="1" as="geometry">
            <mxPoint x="330" y="330" as="sourcePoint" />
            <mxPoint x="60" y="480" as="targetPoint" />
          </mxGeometry>
        </mxCell>
        <mxCell id="E2emIpxxr5MAVBgKW4-d-48" value="1" style="resizable=0;html=1;whiteSpace=wrap;align=right;verticalAlign=bottom;fontFamily=Helvetica;fontSize=11;fontColor=default;labelBackgroundColor=default;" parent="E2emIpxxr5MAVBgKW4-d-47" connectable="0" vertex="1">
          <mxGeometry x="1" relative="1" as="geometry">
            <mxPoint x="-10" as="offset" />
          </mxGeometry>
        </mxCell>
        <mxCell id="E2emIpxxr5MAVBgKW4-d-50" style="edgeStyle=none;shape=connector;rounded=0;orthogonalLoop=1;jettySize=auto;html=1;strokeColor=default;align=center;verticalAlign=middle;fontFamily=Helvetica;fontSize=11;fontColor=default;labelBackgroundColor=default;endArrow=none;" parent="1" source="E2emIpxxr5MAVBgKW4-d-49" target="E2emIpxxr5MAVBgKW4-d-52" edge="1">
          <mxGeometry relative="1" as="geometry">
            <mxPoint x="60" y="520" as="targetPoint" />
          </mxGeometry>
        </mxCell>
        <mxCell id="E2emIpxxr5MAVBgKW4-d-49" value="Horarios" style="ellipse;whiteSpace=wrap;html=1;align=center;fontFamily=Helvetica;fontSize=11;fontColor=default;labelBackgroundColor=default;" parent="1" vertex="1">
          <mxGeometry x="10" y="570" width="100" height="50" as="geometry" />
        </mxCell>
        <mxCell id="E2emIpxxr5MAVBgKW4-d-52" value="PaÃ±olero" style="shape=ext;margin=3;double=1;whiteSpace=wrap;html=1;align=center;fontFamily=Helvetica;fontSize=11;fontColor=default;labelBackgroundColor=default;" parent="1" vertex="1">
          <mxGeometry x="10" y="480" width="100" height="40" as="geometry" />
        </mxCell>
        <mxCell id="E2emIpxxr5MAVBgKW4-d-53" value="Posesiones" style="whiteSpace=wrap;html=1;align=center;fontFamily=Helvetica;fontSize=11;fontColor=default;labelBackgroundColor=default;" parent="1" vertex="1">
          <mxGeometry x="410" y="780" width="100" height="40" as="geometry" />
        </mxCell>
        <mxCell id="E2emIpxxr5MAVBgKW4-d-58" style="edgeStyle=none;shape=connector;rounded=0;orthogonalLoop=1;jettySize=auto;html=1;strokeColor=default;align=center;verticalAlign=middle;fontFamily=Helvetica;fontSize=11;fontColor=default;labelBackgroundColor=default;endArrow=none;" parent="1" source="E2emIpxxr5MAVBgKW4-d-57" target="E2emIpxxr5MAVBgKW4-d-53" edge="1">
          <mxGeometry relative="1" as="geometry" />
        </mxCell>
        <mxCell id="E2emIpxxr5MAVBgKW4-d-86" value="1" style="edgeLabel;html=1;align=center;verticalAlign=middle;resizable=0;points=[];fontFamily=Helvetica;fontSize=11;fontColor=default;labelBackgroundColor=default;" parent="E2emIpxxr5MAVBgKW4-d-58" vertex="1" connectable="0">
          <mxGeometry x="-0.1111" y="-1" relative="1" as="geometry">
            <mxPoint as="offset" />
          </mxGeometry>
        </mxCell>
        <mxCell id="E2emIpxxr5MAVBgKW4-d-57" value="Relationship" style="shape=rhombus;double=1;perimeter=rhombusPerimeter;whiteSpace=wrap;html=1;align=center;fontFamily=Helvetica;fontSize=11;fontColor=default;labelBackgroundColor=default;" parent="1" vertex="1">
          <mxGeometry x="540" y="770" width="120" height="60" as="geometry" />
        </mxCell>
        <mxCell id="E2emIpxxr5MAVBgKW4-d-60" style="edgeStyle=none;shape=connector;rounded=0;orthogonalLoop=1;jettySize=auto;html=1;strokeColor=default;align=center;verticalAlign=middle;fontFamily=Helvetica;fontSize=11;fontColor=default;labelBackgroundColor=default;endArrow=none;" parent="1" source="E2emIpxxr5MAVBgKW4-d-59" target="E2emIpxxr5MAVBgKW4-d-53" edge="1">
          <mxGeometry relative="1" as="geometry" />
        </mxCell>
        <mxCell id="E2emIpxxr5MAVBgKW4-d-85" value="1" style="edgeLabel;html=1;align=center;verticalAlign=middle;resizable=0;points=[];fontFamily=Helvetica;fontSize=11;fontColor=default;labelBackgroundColor=default;" parent="E2emIpxxr5MAVBgKW4-d-60" vertex="1" connectable="0">
          <mxGeometry y="2" relative="1" as="geometry">
            <mxPoint as="offset" />
          </mxGeometry>
        </mxCell>
        <mxCell id="E2emIpxxr5MAVBgKW4-d-59" value="Relationship" style="shape=rhombus;double=1;perimeter=rhombusPerimeter;whiteSpace=wrap;html=1;align=center;fontFamily=Helvetica;fontSize=11;fontColor=default;labelBackgroundColor=default;" parent="1" vertex="1">
          <mxGeometry x="260" y="770" width="120" height="60" as="geometry" />
        </mxCell>
        <mxCell id="E2emIpxxr5MAVBgKW4-d-62" style="edgeStyle=none;shape=connector;rounded=0;orthogonalLoop=1;jettySize=auto;html=1;strokeColor=default;align=center;verticalAlign=middle;fontFamily=Helvetica;fontSize=11;fontColor=default;labelBackgroundColor=default;endArrow=none;" parent="1" source="E2emIpxxr5MAVBgKW4-d-61" target="E2emIpxxr5MAVBgKW4-d-59" edge="1">
          <mxGeometry relative="1" as="geometry" />
        </mxCell>
        <mxCell id="E2emIpxxr5MAVBgKW4-d-88" value="1" style="edgeLabel;html=1;align=center;verticalAlign=middle;resizable=0;points=[];fontFamily=Helvetica;fontSize=11;fontColor=default;labelBackgroundColor=default;" parent="E2emIpxxr5MAVBgKW4-d-62" vertex="1" connectable="0">
          <mxGeometry x="0.1" y="-5" relative="1" as="geometry">
            <mxPoint as="offset" />
          </mxGeometry>
        </mxCell>
        <mxCell id="E2emIpxxr5MAVBgKW4-d-61" value="Recursos" style="shape=ext;margin=3;double=1;whiteSpace=wrap;html=1;align=center;fontFamily=Helvetica;fontSize=11;fontColor=default;labelBackgroundColor=default;" parent="1" vertex="1">
          <mxGeometry x="270" y="870" width="100" height="40" as="geometry" />
        </mxCell>
        <mxCell id="E2emIpxxr5MAVBgKW4-d-64" style="edgeStyle=none;shape=connector;rounded=0;orthogonalLoop=1;jettySize=auto;html=1;strokeColor=default;align=center;verticalAlign=middle;fontFamily=Helvetica;fontSize=11;fontColor=default;labelBackgroundColor=default;endArrow=none;" parent="1" source="E2emIpxxr5MAVBgKW4-d-63" target="E2emIpxxr5MAVBgKW4-d-57" edge="1">
          <mxGeometry relative="1" as="geometry" />
        </mxCell>
        <mxCell id="E2emIpxxr5MAVBgKW4-d-87" value="1" style="edgeLabel;html=1;align=center;verticalAlign=middle;resizable=0;points=[];fontFamily=Helvetica;fontSize=11;fontColor=default;labelBackgroundColor=default;" parent="E2emIpxxr5MAVBgKW4-d-64" vertex="1" connectable="0">
          <mxGeometry x="0.25" y="-4" relative="1" as="geometry">
            <mxPoint as="offset" />
          </mxGeometry>
        </mxCell>
        <mxCell id="E2emIpxxr5MAVBgKW4-d-63" value="Herramientas" style="shape=ext;margin=3;double=1;whiteSpace=wrap;html=1;align=center;fontFamily=Helvetica;fontSize=11;fontColor=default;labelBackgroundColor=default;" parent="1" vertex="1">
          <mxGeometry x="550" y="870" width="100" height="40" as="geometry" />
        </mxCell>
        <mxCell id="E2emIpxxr5MAVBgKW4-d-66" style="edgeStyle=none;shape=connector;rounded=0;orthogonalLoop=1;jettySize=auto;html=1;strokeColor=default;align=center;verticalAlign=middle;fontFamily=Helvetica;fontSize=11;fontColor=default;labelBackgroundColor=default;endArrow=none;" parent="1" source="E2emIpxxr5MAVBgKW4-d-67" target="E2emIpxxr5MAVBgKW4-d-61" edge="1">
          <mxGeometry relative="1" as="geometry">
            <mxPoint x="320" y="960" as="sourcePoint" />
          </mxGeometry>
        </mxCell>
        <mxCell id="E2emIpxxr5MAVBgKW4-d-67" value="Cantidad" style="ellipse;shape=doubleEllipse;margin=3;whiteSpace=wrap;html=1;align=center;fontFamily=Helvetica;fontSize=11;fontColor=default;labelBackgroundColor=default;" parent="1" vertex="1">
          <mxGeometry x="270" y="980" width="100" height="40" as="geometry" />
        </mxCell>
        <mxCell id="E2emIpxxr5MAVBgKW4-d-69" style="edgeStyle=none;shape=connector;rounded=0;orthogonalLoop=1;jettySize=auto;html=1;strokeColor=default;align=center;verticalAlign=middle;fontFamily=Helvetica;fontSize=11;fontColor=default;labelBackgroundColor=default;endArrow=none;" parent="1" source="E2emIpxxr5MAVBgKW4-d-68" target="E2emIpxxr5MAVBgKW4-d-67" edge="1">
          <mxGeometry relative="1" as="geometry" />
        </mxCell>
        <mxCell id="E2emIpxxr5MAVBgKW4-d-68" value="Cantidad" style="ellipse;whiteSpace=wrap;html=1;align=center;fontFamily=Helvetica;fontSize=11;fontColor=default;labelBackgroundColor=default;" parent="1" vertex="1">
          <mxGeometry x="340" y="1060" width="100" height="40" as="geometry" />
        </mxCell>
        <mxCell id="E2emIpxxr5MAVBgKW4-d-71" style="edgeStyle=none;shape=connector;rounded=0;orthogonalLoop=1;jettySize=auto;html=1;strokeColor=default;align=center;verticalAlign=middle;fontFamily=Helvetica;fontSize=11;fontColor=default;labelBackgroundColor=default;endArrow=none;" parent="1" source="E2emIpxxr5MAVBgKW4-d-70" target="E2emIpxxr5MAVBgKW4-d-67" edge="1">
          <mxGeometry relative="1" as="geometry" />
        </mxCell>
        <mxCell id="E2emIpxxr5MAVBgKW4-d-70" value="Unidad de medida" style="ellipse;whiteSpace=wrap;html=1;align=center;fontFamily=Helvetica;fontSize=11;fontColor=default;labelBackgroundColor=default;" parent="1" vertex="1">
          <mxGeometry x="220" y="1060" width="100" height="40" as="geometry" />
        </mxCell>
        <mxCell id="E2emIpxxr5MAVBgKW4-d-74" style="edgeStyle=none;shape=connector;rounded=0;orthogonalLoop=1;jettySize=auto;html=1;strokeColor=default;align=center;verticalAlign=middle;fontFamily=Helvetica;fontSize=11;fontColor=default;labelBackgroundColor=default;endArrow=none;" parent="1" source="E2emIpxxr5MAVBgKW4-d-73" target="E2emIpxxr5MAVBgKW4-d-61" edge="1">
          <mxGeometry relative="1" as="geometry" />
        </mxCell>
        <mxCell id="E2emIpxxr5MAVBgKW4-d-73" value="Nombre" style="ellipse;whiteSpace=wrap;html=1;align=center;fontFamily=Helvetica;fontSize=11;fontColor=default;labelBackgroundColor=default;" parent="1" vertex="1">
          <mxGeometry x="120" y="780" width="100" height="40" as="geometry" />
        </mxCell>
        <mxCell id="E2emIpxxr5MAVBgKW4-d-77" style="edgeStyle=none;shape=connector;rounded=0;orthogonalLoop=1;jettySize=auto;html=1;strokeColor=default;align=center;verticalAlign=middle;fontFamily=Helvetica;fontSize=11;fontColor=default;labelBackgroundColor=default;endArrow=none;" parent="1" source="E2emIpxxr5MAVBgKW4-d-76" target="E2emIpxxr5MAVBgKW4-d-63" edge="1">
          <mxGeometry relative="1" as="geometry" />
        </mxCell>
        <mxCell id="E2emIpxxr5MAVBgKW4-d-76" value="Cantidad" style="ellipse;whiteSpace=wrap;html=1;align=center;fontFamily=Helvetica;fontSize=11;fontColor=default;labelBackgroundColor=default;" parent="1" vertex="1">
          <mxGeometry x="550" y="940" width="100" height="40" as="geometry" />
        </mxCell>
        <mxCell id="E2emIpxxr5MAVBgKW4-d-79" style="edgeStyle=none;shape=connector;rounded=0;orthogonalLoop=1;jettySize=auto;html=1;strokeColor=default;align=center;verticalAlign=middle;fontFamily=Helvetica;fontSize=11;fontColor=default;labelBackgroundColor=default;endArrow=none;" parent="1" source="E2emIpxxr5MAVBgKW4-d-78" target="E2emIpxxr5MAVBgKW4-d-61" edge="1">
          <mxGeometry relative="1" as="geometry" />
        </mxCell>
        <mxCell id="E2emIpxxr5MAVBgKW4-d-83" value="N" style="edgeLabel;html=1;align=center;verticalAlign=middle;resizable=0;points=[];fontFamily=Helvetica;fontSize=11;fontColor=default;labelBackgroundColor=default;" parent="E2emIpxxr5MAVBgKW4-d-79" vertex="1" connectable="0">
          <mxGeometry x="0.04" y="1" relative="1" as="geometry">
            <mxPoint as="offset" />
          </mxGeometry>
        </mxCell>
        <mxCell id="E2emIpxxr5MAVBgKW4-d-81" value="1" style="edgeStyle=none;shape=connector;rounded=0;orthogonalLoop=1;jettySize=auto;html=1;strokeColor=default;align=center;verticalAlign=middle;fontFamily=Helvetica;fontSize=11;fontColor=default;labelBackgroundColor=default;endArrow=none;" parent="1" source="E2emIpxxr5MAVBgKW4-d-78" target="E2emIpxxr5MAVBgKW4-d-80" edge="1">
          <mxGeometry relative="1" as="geometry" />
        </mxCell>
        <mxCell id="E2emIpxxr5MAVBgKW4-d-82" value="1" style="edgeLabel;html=1;align=center;verticalAlign=middle;resizable=0;points=[];fontFamily=Helvetica;fontSize=11;fontColor=default;labelBackgroundColor=default;" parent="E2emIpxxr5MAVBgKW4-d-81" vertex="1" connectable="0">
          <mxGeometry x="-0.5" y="1" relative="1" as="geometry">
            <mxPoint x="-1" y="15" as="offset" />
          </mxGeometry>
        </mxCell>
        <mxCell id="E2emIpxxr5MAVBgKW4-d-78" value="Pertenece a" style="shape=rhombus;perimeter=rhombusPerimeter;whiteSpace=wrap;html=1;align=center;fontFamily=Helvetica;fontSize=11;fontColor=default;labelBackgroundColor=default;" parent="1" vertex="1">
          <mxGeometry x="100" y="860" width="120" height="60" as="geometry" />
        </mxCell>
        <mxCell id="E2emIpxxr5MAVBgKW4-d-80" value="Categoria" style="whiteSpace=wrap;html=1;align=center;fontFamily=Helvetica;fontSize=11;fontColor=default;labelBackgroundColor=default;" parent="1" vertex="1">
          <mxGeometry x="110" y="980" width="100" height="40" as="geometry" />
        </mxCell>
        <mxCell id="E2emIpxxr5MAVBgKW4-d-94" value="1" style="edgeStyle=none;shape=connector;rounded=0;orthogonalLoop=1;jettySize=auto;html=1;strokeColor=default;align=center;verticalAlign=middle;fontFamily=Helvetica;fontSize=11;fontColor=default;labelBackgroundColor=default;endArrow=none;" parent="1" source="E2emIpxxr5MAVBgKW4-d-96" target="E2emIpxxr5MAVBgKW4-d-97" edge="1">
          <mxGeometry relative="1" as="geometry" />
        </mxCell>
        <mxCell id="E2emIpxxr5MAVBgKW4-d-95" value="1" style="edgeLabel;html=1;align=center;verticalAlign=middle;resizable=0;points=[];fontFamily=Helvetica;fontSize=11;fontColor=default;labelBackgroundColor=default;" parent="E2emIpxxr5MAVBgKW4-d-94" vertex="1" connectable="0">
          <mxGeometry x="-0.5" y="1" relative="1" as="geometry">
            <mxPoint x="-1" y="15" as="offset" />
          </mxGeometry>
        </mxCell>
        <mxCell id="E2emIpxxr5MAVBgKW4-d-98" style="edgeStyle=none;shape=connector;rounded=0;orthogonalLoop=1;jettySize=auto;html=1;strokeColor=default;align=center;verticalAlign=middle;fontFamily=Helvetica;fontSize=11;fontColor=default;labelBackgroundColor=default;endArrow=none;" parent="1" source="E2emIpxxr5MAVBgKW4-d-96" target="E2emIpxxr5MAVBgKW4-d-63" edge="1">
          <mxGeometry relative="1" as="geometry" />
        </mxCell>
        <mxCell id="T2F4RTrKxuqQYu7UsIe5-1" value="N" style="edgeLabel;html=1;align=center;verticalAlign=middle;resizable=0;points=[];" vertex="1" connectable="0" parent="E2emIpxxr5MAVBgKW4-d-98">
          <mxGeometry x="0.0758" y="2" relative="1" as="geometry">
            <mxPoint as="offset" />
          </mxGeometry>
        </mxCell>
        <mxCell id="E2emIpxxr5MAVBgKW4-d-96" value="Pertenece a" style="shape=rhombus;perimeter=rhombusPerimeter;whiteSpace=wrap;html=1;align=center;fontFamily=Helvetica;fontSize=11;fontColor=default;labelBackgroundColor=default;" parent="1" vertex="1">
          <mxGeometry x="707" y="860" width="120" height="60" as="geometry" />
        </mxCell>
        <mxCell id="T2F4RTrKxuqQYu7UsIe5-11" style="edgeStyle=none;shape=connector;rounded=0;orthogonalLoop=1;jettySize=auto;html=1;strokeColor=default;align=center;verticalAlign=middle;fontFamily=Helvetica;fontSize=11;fontColor=default;labelBackgroundColor=default;endArrow=none;" edge="1" parent="1" source="E2emIpxxr5MAVBgKW4-d-97" target="T2F4RTrKxuqQYu7UsIe5-8">
          <mxGeometry relative="1" as="geometry" />
        </mxCell>
        <mxCell id="E2emIpxxr5MAVBgKW4-d-97" value="Categoria" style="whiteSpace=wrap;html=1;align=center;fontFamily=Helvetica;fontSize=11;fontColor=default;labelBackgroundColor=default;" parent="1" vertex="1">
          <mxGeometry x="717" y="1010" width="100" height="40" as="geometry" />
        </mxCell>
        <mxCell id="E2emIpxxr5MAVBgKW4-d-100" style="edgeStyle=none;shape=connector;rounded=0;orthogonalLoop=1;jettySize=auto;html=1;strokeColor=default;align=center;verticalAlign=middle;fontFamily=Helvetica;fontSize=11;fontColor=default;labelBackgroundColor=default;endArrow=none;" parent="1" source="E2emIpxxr5MAVBgKW4-d-99" target="E2emIpxxr5MAVBgKW4-d-63" edge="1">
          <mxGeometry relative="1" as="geometry" />
        </mxCell>
        <mxCell id="E2emIpxxr5MAVBgKW4-d-99" value="Nombre" style="ellipse;whiteSpace=wrap;html=1;align=center;fontFamily=Helvetica;fontSize=11;fontColor=default;labelBackgroundColor=default;" parent="1" vertex="1">
          <mxGeometry x="420" y="870" width="100" height="40" as="geometry" />
        </mxCell>
        <mxCell id="E2emIpxxr5MAVBgKW4-d-105" style="edgeStyle=none;shape=connector;rounded=0;orthogonalLoop=1;jettySize=auto;html=1;strokeColor=default;align=center;verticalAlign=middle;fontFamily=Helvetica;fontSize=11;fontColor=default;labelBackgroundColor=default;endArrow=none;" parent="1" source="E2emIpxxr5MAVBgKW4-d-104" target="E2emIpxxr5MAVBgKW4-d-63" edge="1">
          <mxGeometry relative="1" as="geometry" />
        </mxCell>
        <mxCell id="E2emIpxxr5MAVBgKW4-d-104" value="Ubicacion" style="ellipse;shape=doubleEllipse;margin=3;whiteSpace=wrap;html=1;align=center;fontFamily=Helvetica;fontSize=11;fontColor=default;labelBackgroundColor=default;" parent="1" vertex="1">
          <mxGeometry x="420" y="940" width="100" height="40" as="geometry" />
        </mxCell>
        <mxCell id="E2emIpxxr5MAVBgKW4-d-107" style="edgeStyle=none;shape=connector;rounded=0;orthogonalLoop=1;jettySize=auto;html=1;strokeColor=default;align=center;verticalAlign=middle;fontFamily=Helvetica;fontSize=11;fontColor=default;labelBackgroundColor=default;endArrow=none;" parent="1" source="E2emIpxxr5MAVBgKW4-d-106" target="E2emIpxxr5MAVBgKW4-d-104" edge="1">
          <mxGeometry relative="1" as="geometry" />
        </mxCell>
        <mxCell id="E2emIpxxr5MAVBgKW4-d-106" value="Estanteria" style="ellipse;whiteSpace=wrap;html=1;align=center;fontFamily=Helvetica;fontSize=11;fontColor=default;labelBackgroundColor=default;" parent="1" vertex="1">
          <mxGeometry x="480" y="1010" width="100" height="40" as="geometry" />
        </mxCell>
        <mxCell id="E2emIpxxr5MAVBgKW4-d-109" style="edgeStyle=none;shape=connector;rounded=0;orthogonalLoop=1;jettySize=auto;html=1;strokeColor=default;align=center;verticalAlign=middle;fontFamily=Helvetica;fontSize=11;fontColor=default;labelBackgroundColor=default;endArrow=none;" parent="1" source="E2emIpxxr5MAVBgKW4-d-108" target="E2emIpxxr5MAVBgKW4-d-104" edge="1">
          <mxGeometry relative="1" as="geometry" />
        </mxCell>
        <mxCell id="E2emIpxxr5MAVBgKW4-d-108" value="Cajon" style="ellipse;whiteSpace=wrap;html=1;align=center;fontFamily=Helvetica;fontSize=11;fontColor=default;labelBackgroundColor=default;" parent="1" vertex="1">
          <mxGeometry x="370" y="1010" width="100" height="40" as="geometry" />
        </mxCell>
        <mxCell id="T2F4RTrKxuqQYu7UsIe5-5" style="edgeStyle=none;shape=connector;rounded=0;orthogonalLoop=1;jettySize=auto;html=1;strokeColor=default;align=center;verticalAlign=middle;fontFamily=Helvetica;fontSize=11;fontColor=default;labelBackgroundColor=default;endArrow=none;" edge="1" parent="1" source="T2F4RTrKxuqQYu7UsIe5-3" target="E2emIpxxr5MAVBgKW4-d-80">
          <mxGeometry relative="1" as="geometry" />
        </mxCell>
        <mxCell id="T2F4RTrKxuqQYu7UsIe5-3" value="Nombre" style="ellipse;whiteSpace=wrap;html=1;align=center;" vertex="1" parent="1">
          <mxGeometry y="1060" width="100" height="40" as="geometry" />
        </mxCell>
        <mxCell id="T2F4RTrKxuqQYu7UsIe5-7" style="edgeStyle=none;shape=connector;rounded=0;orthogonalLoop=1;jettySize=auto;html=1;strokeColor=default;align=center;verticalAlign=middle;fontFamily=Helvetica;fontSize=11;fontColor=default;labelBackgroundColor=default;endArrow=none;" edge="1" parent="1" source="T2F4RTrKxuqQYu7UsIe5-6" target="E2emIpxxr5MAVBgKW4-d-80">
          <mxGeometry relative="1" as="geometry" />
        </mxCell>
        <mxCell id="T2F4RTrKxuqQYu7UsIe5-6" value="Descripcion" style="ellipse;whiteSpace=wrap;html=1;align=center;" vertex="1" parent="1">
          <mxGeometry x="110" y="1060" width="100" height="40" as="geometry" />
        </mxCell>
        <mxCell id="T2F4RTrKxuqQYu7UsIe5-8" value="Nombre" style="ellipse;whiteSpace=wrap;html=1;align=center;" vertex="1" parent="1">
          <mxGeometry x="600" y="1010" width="100" height="40" as="geometry" />
        </mxCell>
        <mxCell id="T2F4RTrKxuqQYu7UsIe5-10" style="edgeStyle=none;shape=connector;rounded=0;orthogonalLoop=1;jettySize=auto;html=1;strokeColor=default;align=center;verticalAlign=middle;fontFamily=Helvetica;fontSize=11;fontColor=default;labelBackgroundColor=default;endArrow=none;" edge="1" parent="1" source="T2F4RTrKxuqQYu7UsIe5-9" target="E2emIpxxr5MAVBgKW4-d-97">
          <mxGeometry relative="1" as="geometry" />
        </mxCell>
        <mxCell id="T2F4RTrKxuqQYu7UsIe5-9" value="Descripcion" style="ellipse;whiteSpace=wrap;html=1;align=center;" vertex="1" parent="1">
          <mxGeometry x="660" y="960" width="100" height="40" as="geometry" />
        </mxCell>
        <mxCell id="T2F4RTrKxuqQYu7UsIe5-16" style="edgeStyle=none;shape=connector;rounded=0;orthogonalLoop=1;jettySize=auto;html=1;strokeColor=default;align=center;verticalAlign=middle;fontFamily=Helvetica;fontSize=11;fontColor=default;labelBackgroundColor=default;endArrow=none;" edge="1" parent="1" source="T2F4RTrKxuqQYu7UsIe5-15" target="E2emIpxxr5MAVBgKW4-d-52">
          <mxGeometry relative="1" as="geometry" />
        </mxCell>
        <mxCell id="T2F4RTrKxuqQYu7UsIe5-30" value="N" style="edgeLabel;html=1;align=center;verticalAlign=middle;resizable=0;points=[];fontFamily=Helvetica;fontSize=11;fontColor=default;labelBackgroundColor=default;" vertex="1" connectable="0" parent="T2F4RTrKxuqQYu7UsIe5-16">
          <mxGeometry x="-0.6259" y="-2" relative="1" as="geometry">
            <mxPoint x="-67" y="-21" as="offset" />
          </mxGeometry>
        </mxCell>
        <mxCell id="T2F4RTrKxuqQYu7UsIe5-17" style="edgeStyle=none;shape=connector;rounded=0;orthogonalLoop=1;jettySize=auto;html=1;strokeColor=default;align=center;verticalAlign=middle;fontFamily=Helvetica;fontSize=11;fontColor=default;labelBackgroundColor=default;endArrow=none;" edge="1" parent="1" source="T2F4RTrKxuqQYu7UsIe5-15" target="E2emIpxxr5MAVBgKW4-d-26">
          <mxGeometry relative="1" as="geometry" />
        </mxCell>
        <mxCell id="T2F4RTrKxuqQYu7UsIe5-29" value="N" style="edgeLabel;html=1;align=center;verticalAlign=middle;resizable=0;points=[];fontFamily=Helvetica;fontSize=11;fontColor=default;labelBackgroundColor=default;" vertex="1" connectable="0" parent="T2F4RTrKxuqQYu7UsIe5-17">
          <mxGeometry x="-0.1338" y="-3" relative="1" as="geometry">
            <mxPoint x="-1" as="offset" />
          </mxGeometry>
        </mxCell>
        <mxCell id="T2F4RTrKxuqQYu7UsIe5-18" style="edgeStyle=none;shape=connector;rounded=0;orthogonalLoop=1;jettySize=auto;html=1;strokeColor=default;align=center;verticalAlign=middle;fontFamily=Helvetica;fontSize=11;fontColor=default;labelBackgroundColor=default;endArrow=none;" edge="1" parent="1" source="T2F4RTrKxuqQYu7UsIe5-15" target="E2emIpxxr5MAVBgKW4-d-53">
          <mxGeometry relative="1" as="geometry" />
        </mxCell>
        <mxCell id="T2F4RTrKxuqQYu7UsIe5-27" value="N" style="edgeLabel;html=1;align=center;verticalAlign=middle;resizable=0;points=[];fontFamily=Helvetica;fontSize=11;fontColor=default;labelBackgroundColor=default;" vertex="1" connectable="0" parent="T2F4RTrKxuqQYu7UsIe5-18">
          <mxGeometry x="-0.3016" y="1" relative="1" as="geometry">
            <mxPoint as="offset" />
          </mxGeometry>
        </mxCell>
        <mxCell id="T2F4RTrKxuqQYu7UsIe5-15" value="Presta a&amp;nbsp;" style="shape=rhombus;perimeter=rhombusPerimeter;whiteSpace=wrap;html=1;align=center;fontFamily=Helvetica;fontSize=11;fontColor=default;labelBackgroundColor=default;" vertex="1" parent="1">
          <mxGeometry x="400" y="630" width="120" height="60" as="geometry" />
        </mxCell>
        <mxCell id="T2F4RTrKxuqQYu7UsIe5-22" style="edgeStyle=none;shape=connector;rounded=0;orthogonalLoop=1;jettySize=auto;html=1;strokeColor=default;align=center;verticalAlign=middle;fontFamily=Helvetica;fontSize=11;fontColor=default;labelBackgroundColor=default;endArrow=none;" edge="1" parent="1" source="T2F4RTrKxuqQYu7UsIe5-21" target="T2F4RTrKxuqQYu7UsIe5-15">
          <mxGeometry relative="1" as="geometry" />
        </mxCell>
        <mxCell id="T2F4RTrKxuqQYu7UsIe5-21" value="Fecha" style="ellipse;whiteSpace=wrap;html=1;align=center;fontFamily=Helvetica;fontSize=11;fontColor=default;labelBackgroundColor=default;" vertex="1" parent="1">
          <mxGeometry x="260" y="640" width="100" height="40" as="geometry" />
        </mxCell>
        <mxCell id="T2F4RTrKxuqQYu7UsIe5-24" style="edgeStyle=none;shape=connector;rounded=0;orthogonalLoop=1;jettySize=auto;html=1;strokeColor=default;align=center;verticalAlign=middle;fontFamily=Helvetica;fontSize=11;fontColor=default;labelBackgroundColor=default;endArrow=none;" edge="1" parent="1" source="T2F4RTrKxuqQYu7UsIe5-23" target="T2F4RTrKxuqQYu7UsIe5-15">
          <mxGeometry relative="1" as="geometry" />
        </mxCell>
        <mxCell id="T2F4RTrKxuqQYu7UsIe5-23" value="Vigencia" style="ellipse;whiteSpace=wrap;html=1;align=center;fontFamily=Helvetica;fontSize=11;fontColor=default;labelBackgroundColor=default;" vertex="1" parent="1">
          <mxGeometry x="560" y="640" width="100" height="40" as="geometry" />
        </mxCell>
        <mxCell id="T2F4RTrKxuqQYu7UsIe5-33" style="edgeStyle=none;shape=connector;rounded=0;orthogonalLoop=1;jettySize=auto;html=1;strokeColor=default;align=center;verticalAlign=middle;fontFamily=Helvetica;fontSize=11;fontColor=default;labelBackgroundColor=default;endArrow=none;" edge="1" parent="1" source="T2F4RTrKxuqQYu7UsIe5-32" target="T2F4RTrKxuqQYu7UsIe5-15">
          <mxGeometry relative="1" as="geometry" />
        </mxCell>
        <mxCell id="T2F4RTrKxuqQYu7UsIe5-32" value="Devuelto" style="ellipse;whiteSpace=wrap;html=1;align=center;fontFamily=Helvetica;fontSize=11;fontColor=default;labelBackgroundColor=default;" vertex="1" parent="1">
          <mxGeometry x="560" y="690" width="100" height="40" as="geometry" />
        </mxCell>
        <mxCell id="T2F4RTrKxuqQYu7UsIe5-35" style="edgeStyle=none;shape=connector;rounded=0;orthogonalLoop=1;jettySize=auto;html=1;strokeColor=default;align=center;verticalAlign=middle;fontFamily=Helvetica;fontSize=11;fontColor=default;labelBackgroundColor=default;endArrow=none;" edge="1" parent="1" source="T2F4RTrKxuqQYu7UsIe5-34" target="T2F4RTrKxuqQYu7UsIe5-15">
          <mxGeometry relative="1" as="geometry" />
        </mxCell>
        <mxCell id="T2F4RTrKxuqQYu7UsIe5-34" value="Cantidad" style="ellipse;whiteSpace=wrap;html=1;align=center;fontFamily=Helvetica;fontSize=11;fontColor=default;labelBackgroundColor=default;" vertex="1" parent="1">
          <mxGeometry x="260" y="700" width="100" height="40" as="geometry" />
        </mxCell>
        <mxCell id="T2F4RTrKxuqQYu7UsIe5-37" style="edgeStyle=none;shape=connector;rounded=0;orthogonalLoop=1;jettySize=auto;html=1;strokeColor=default;align=center;verticalAlign=middle;fontFamily=Helvetica;fontSize=11;fontColor=default;labelBackgroundColor=default;endArrow=none;" edge="1" parent="1" source="T2F4RTrKxuqQYu7UsIe5-36" target="E2emIpxxr5MAVBgKW4-d-63">
          <mxGeometry relative="1" as="geometry" />
        </mxCell>
        <mxCell id="T2F4RTrKxuqQYu7UsIe5-36" value="Cantidad Disponible" style="ellipse;whiteSpace=wrap;html=1;align=center;fontFamily=Helvetica;fontSize=11;fontColor=default;labelBackgroundColor=default;" vertex="1" parent="1">
          <mxGeometry x="690" y="780" width="127" height="40" as="geometry" />
        </mxCell>
      </root>
    </mxGraphModel>
  </diagram>
</mxfile>
